<svg xmlns="http://www.w3.org/2000/svg" viewBox="0 0 368 368"><defs><style>.cls-1{fill:#fff;}.cls-2{fill:#5e5e5e;}.cls-3{fill:#3d3d3d;}.cls-4{fill:#161616;}.cls-5{fill:#747474;}.cls-6{fill:#2b2b2b;}.cls-7{fill:#f7f7f7;}.cls-8{fill:#fbfbfa;}.cls-9{fill:#fbfcfc;}.cls-10{fill:#f8f9fa;}</style></defs><title>logo</title><g id="bookshelf_1" data-name="bookshelf 1"><circle class="cls-1" cx="182.25" cy="185.75" r="181.25"/><rect class="cls-2" x="73" y="108" width="49" height="165"/><rect class="cls-3" x="131" y="48" width="49" height="225"/><rect class="cls-4" x="188" y="34" width="49" height="239"/><rect class="cls-5" x="246" y="108" width="49" height="165"/><rect class="cls-6" x="36" y="273" width="295" height="7"/><rect class="cls-6" x="73" y="130" width="49" height="18"/><rect class="cls-6" x="131" y="91" width="49" height="8"/><rect class="cls-6" x="131" y="217" width="49" height="8"/><rect class="cls-3" x="188" y="189" width="49" height="36"/><rect class="cls-6" x="246" y="139" width="49" height="15"/><rect class="cls-6" x="246" y="187" width="49" height="15"/><path class="cls-6" d="M142.87,302c18.81-6.55,27.71-.18,27.72,19,0,4,0,7.94-.07,11.9-.06,2.33-1.35,3.61-3.78,3.62s-3.57-1.39-3.59-3.71c-.05-5,0-9.92-.07-14.88-.17-8.11-3.23-11.56-10.17-11.61-7.43-.05-9.95,2.79-10,11.4,0,4.71,0,9.42,0,14.13,0,2.29-.19,4.59-3.42,4.66-2.89.07-4.13-1.66-4.15-4.15q-.12-21.93,0-43.87c0-2.52,1.14-4.33,4-4.3,3,0,3.6,2.12,3.62,4.55C142.89,293,142.87,297.16,142.87,302Z"/><path class="cls-7" d="M265,241.38c5.64-5,10-8.88,14.35-12.74,1.94-1.73,4.12-3.43,6.32-.8,1.87,2.24.05,4.1-1.56,5.73l-.54.51c-9.77,9.76-9.77,9.76-.91,20.38.79,1,1.61,1.89,2.38,2.86,1.4,1.76,3.19,3.67.94,5.8s-4.5,1.11-6.29-1.09c-2.81-3.46-5.58-7-8.48-10.35-1-1.22-1.73-3.44-3.91-2.74s-2.33,2.89-2.29,4.93c0,1.73,0,3.47,0,5.2-.05,2.26.07,4.65-3.2,4.79-3.5.14-4.11-2.24-4.12-4.88-.07-10.4,0-20.81,0-31.21,0-4,0-7.93,0-11.89.05-2.5,1-4.41,3.93-4.34,3.07.08,3.39,2.26,3.38,4.68C264.94,223.9,265,231.58,265,241.38Z"/><path class="cls-6" d="M112.82,336.92c-4.76-.06-9.42-.58-13.43-3.48-1.81-1.31-4-2.74-2.38-5.38s4-2.6,6.33-.83a14,14,0,0,0,10.34,3.29c2.79-.3,5.8-1,6.06-4.29.23-2.92-2.37-4-4.89-4.7-3.32-.93-6.7-1.71-9.94-2.89-4.33-1.58-7.16-4.7-6.93-9.49.2-4.44,3.13-7,7.16-8.58a18.94,18.94,0,0,1,17.76,1.78c2,1.3,4.65,3.14,2.93,5.92s-4.2,1.48-6.41,0a11.93,11.93,0,0,0-11.27-1.73c-1.55.54-2.72,1.34-2.87,3a3.22,3.22,0,0,0,2.41,3.35,86.36,86.36,0,0,0,8.48,2.59c6.21,1.51,11.55,3.92,11,11.58C126.76,333.11,121.13,336.82,112.82,336.92Z"/><path class="cls-6" d="M243.7,321.14c0-3.46-.59-7.06.13-10.37,1.14-5.17-8.91-2.76-5.43-8.16,1.67-2.58,5.45-2.95,6-7.6.87-6.72,6-10.47,13.11-10.87,2.4-.14,4.79.05,5.12,2.88.27,2.44-1.68,3.17-3.91,3.4a7.67,7.67,0,0,0-6.51,4.34c-1.43,3.1-2.67,6.43,3.13,6,2.6-.18,5.41.07,5.35,3.49-.05,3.12-2.85,3.05-5,2.84-3.72-.36-4.69,1.27-4.56,4.72.23,5.69.18,11.39,0,17.08-.08,3,1.35,7.25-3.59,7.5-5.29.26-3.6-4.21-3.82-7.09C243.54,326.6,243.71,323.87,243.7,321.14Z"/><path class="cls-6" d="M221.39,307.3c0-4.69-.29-9.41.09-14.07.27-3.24-2.3-8.67,3.46-8.88,5.95-.21,3.73,5.31,3.82,8.52.26,9.38.06,18.77.11,28.15,0,3.84-1,8.24,5.2,8.64,1.89.12,2.74,2,2.47,3.94-.35,2.53-2.2,2.85-4.34,3-5.74.37-10-3.86-10.73-10.77a14.66,14.66,0,0,1-.07-1.48C221.39,318.66,221.4,313,221.39,307.3Z"/><path class="cls-6" d="M211,305a14.23,14.23,0,0,0-5.9-4.33,18.54,18.54,0,0,0-21.95,5.81c-5.1,7-4.72,17.7.84,24.15s16.63,8.33,24.5,4.09c2-1.11,5.21-2.11,3.5-5.34-1.54-2.92-4-1.78-6.41-.54-5.58,2.9-10.93,2.68-15.7-1.78-1.45-1.36-3.18-3-2.67-5,.69-2.76,3.32-1.24,5.06-1.4,2.7-.25,5.45-.07,8.17-.07a20.06,20.06,0,0,0,3.72,0c3.64-.69,9,2.37,10.59-2.46C216.21,313.66,214,308.87,211,305Zm-20.93,9.59c-4.15,0-2.94-2.14-1.59-4.18a10.47,10.47,0,0,1,10.17-4.84c4.68.47,8.23,3,9.21,9C201.72,314.59,195.9,314.6,190.07,314.59Z"/><path class="cls-8" d="M155.43,227.13c-11.32-.06-19,7.75-18.86,19.29.1,11,7.75,18.45,18.93,18.36s18.57-7.66,18.58-18.76C174.1,235.17,166.22,227.19,155.43,227.13Zm-.09,31.28c-6.69,0-12-5.66-11.79-12.65.19-6.82,5.25-12.08,11.66-12.12,6.72,0,11.78,5.48,11.64,12.73C166.72,253.3,161.85,258.4,155.34,258.41Z"/><path class="cls-9" d="M213.46,227.14c-11.29-.13-19,7.66-18.92,19.17.05,11.07,7.64,18.53,18.77,18.47s18.43-7.34,18.47-18.66S224.44,227.26,213.46,227.14Zm-.21,31.28a12.08,12.08,0,0,1-11.81-11.94c-.21-7,5-12.81,11.71-12.85,6.41,0,11.56,5.23,11.76,12C225.13,252.74,220,258.39,213.25,258.42Z"/><path class="cls-10" d="M115.82,243c-1.14-10-9.2-16.83-18.71-16.31-4.12.23-7.16,2.94-11.25,4.24,0-5.28,0-10.21,0-15.15,0-2.73-1.33-4.21-4.06-4.14-2.48.07-3.4,1.67-3.38,4,.06,11.14-.51,22.34.36,33.42.82,10.44,10.57,16.61,21.75,15C110.47,262.64,117,253.61,115.82,243ZM97.48,258c-6.74.23-11.71-5-11.73-12.39,0-6.86,4.71-12.15,11.06-12.35,6.55-.2,11.86,5.37,11.84,12.42C108.63,252.51,103.85,257.79,97.48,258Z"/></g></svg>